<?xml version="1.0" encoding="UTF-8"?>
<svg version="1.1" xmlns="http://www.w3.org/2000/svg" width="1214" height="489">
<path d="M0 0 C400.62 0 801.24 0 1214 0 C1214 161.37 1214 322.74 1214 489 C813.38 489 412.76 489 0 489 C0 327.63 0 166.26 0 0 Z " fill="#FEFEFE" transform="translate(0,0)"/>
<path d="M0 0 C2.6349047 1.10054583 4.6899387 2.1281494 7.0625 3.625 C8.43349549 4.44417489 9.8045967 5.26317286 11.17578125 6.08203125 C11.92811035 6.5404541 12.68043945 6.99887695 13.45556641 7.47119141 C16.35724081 9.21464613 19.29042743 10.89629612 22.23046875 12.57421875 C24.4038283 13.81999423 26.57700581 15.06608735 28.75 16.3125 C29.79808838 16.91078613 30.84617676 17.50907227 31.92602539 18.12548828 C33.40897095 18.9856958 33.40897095 18.9856958 34.921875 19.86328125 C35.80456055 20.37157471 36.68724609 20.87986816 37.59667969 21.40356445 C40.72359409 23.48065641 43.30588013 25.61176026 45 29 C45.11066885 30.6736526 45.15915305 32.35159601 45.17700195 34.02880859 C45.19625481 35.60086563 45.19625481 35.60086563 45.21589661 37.2046814 C45.22328354 38.34112091 45.23067047 39.47756042 45.23828125 40.6484375 C45.246353 41.81251129 45.25442474 42.97658508 45.26274109 44.17593384 C45.27658918 46.64233914 45.28730807 49.10876366 45.29516602 51.57519531 C45.31239773 55.35258097 45.35628111 59.12909594 45.40039062 62.90625 C45.41051553 65.29947271 45.41903226 67.69270288 45.42578125 70.0859375 C45.44328934 71.21832855 45.46079742 72.3507196 45.47883606 73.51742554 C45.47591049 74.57176788 45.47298492 75.62611023 45.4699707 76.71240234 C45.47583694 77.63902679 45.48170319 78.56565125 45.48774719 79.52035522 C44.84922147 82.76653887 43.50812037 83.91344666 41 86 C39.28325648 87.09445569 37.52473447 88.1250245 35.73828125 89.1015625 C34.70936768 89.66987793 33.6804541 90.23819336 32.62036133 90.82373047 C30.98296997 91.71535889 30.98296997 91.71535889 29.3125 92.625 C19.96659138 97.74298545 19.96659138 97.74298545 10.78125 103.140625 C9.63402466 103.83937744 9.63402466 103.83937744 8.46362305 104.55224609 C7.07037609 105.408972 5.68332529 106.27589143 4.30395508 107.15478516 C0.26995566 109.62458072 -2.3083965 110.41046945 -7 110 C-9.67456055 108.8894043 -9.67456055 108.8894043 -12.38671875 107.32421875 C-13.90531494 106.46050659 -13.90531494 106.46050659 -15.45458984 105.5793457 C-16.5214502 104.95503662 -17.58831055 104.33072754 -18.6875 103.6875 C-19.78787598 103.05610107 -20.88825195 102.42470215 -22.02197266 101.77416992 C-24.26994539 100.48224466 -26.51475173 99.18479409 -28.75634766 97.88183594 C-31.74856602 96.14587183 -34.75180284 94.43160157 -37.76171875 92.7265625 C-39.4664926 91.75581705 -41.17094085 90.7844995 -42.875 89.8125 C-44.05002075 89.14577271 -44.05002075 89.14577271 -45.2487793 88.46557617 C-45.968479 88.05025635 -46.68817871 87.63493652 -47.4296875 87.20703125 C-48.05085449 86.8510083 -48.67202148 86.49498535 -49.31201172 86.12817383 C-51.20894901 84.86034808 -52.55607536 83.77968426 -54 82 C-54.38768005 79.66079712 -54.38768005 79.66079712 -54.40405273 76.87353516 C-54.41673691 75.82880035 -54.42942108 74.78406555 -54.44248962 73.70767212 C-54.43955399 72.57953094 -54.43661835 71.45138977 -54.43359375 70.2890625 C-54.4388356 69.12877533 -54.44407745 67.96848816 -54.44947815 66.77304077 C-54.45590626 64.31680095 -54.45455122 61.86053038 -54.44604492 59.40429688 C-54.43754878 55.64657636 -54.4662657 51.89038221 -54.49804688 48.1328125 C-54.49965928 45.74739629 -54.49908061 43.36197739 -54.49609375 40.9765625 C-54.50732773 39.85246979 -54.51856171 38.72837708 -54.53013611 37.57022095 C-54.46105392 29.83027135 -54.46105392 29.83027135 -52.31591797 25.96728516 C-49.79726787 23.82778668 -47.33410767 22.16289062 -44.44921875 20.546875 C-43.36503662 19.93142822 -42.28085449 19.31598145 -41.16381836 18.68188477 C-40.0166333 18.04436279 -38.86944824 17.40684082 -37.6875 16.75 C-35.32614578 15.42407546 -32.96776106 14.09291357 -30.609375 12.76171875 C-29.47048828 12.12024902 -28.33160156 11.4787793 -27.15820312 10.81787109 C-24.48144918 9.27712358 -21.86365935 7.68812633 -19.265625 6.01953125 C-18.60216064 5.59639648 -17.93869629 5.17326172 -17.25512695 4.73730469 C-15.57652444 3.65235703 -13.91068162 2.54773577 -12.24609375 1.44140625 C-7.99569449 -0.44595515 -4.57936439 -0.71427772 0 0 Z " fill="#FC506C" transform="translate(149,150)"/>
<path d="M0 0 C3.01928711 1.33178711 3.01928711 1.33178711 6.02734375 3.02734375 C7.14246338 3.6502832 8.25758301 4.27322266 9.40649414 4.91503906 C10.58386432 5.58854942 11.76085999 6.26271483 12.9375 6.9375 C14.14614268 7.6212286 15.35504725 8.30449445 16.56420898 8.98730469 C23.29222121 12.80262444 29.97936839 16.68903313 36.5625 20.75 C37.20372803 21.1430835 37.84495605 21.53616699 38.50561523 21.94116211 C41.41785727 23.78301998 43.05571646 25.08357469 45 28 C45.27415466 30.33920288 45.27415466 30.33920288 45.30639648 33.12646484 C45.32238388 34.17119965 45.33837128 35.21593445 45.35484314 36.29232788 C45.36020584 37.42046906 45.36556854 38.54861023 45.37109375 39.7109375 C45.38012222 40.87122467 45.3891507 42.03151184 45.39845276 43.22695923 C45.41297007 45.68318088 45.42184565 48.13944134 45.42553711 50.59570312 C45.43743203 54.35352757 45.48660564 58.10970981 45.53710938 61.8671875 C45.54657345 64.25259614 45.55380856 66.63801488 45.55859375 69.0234375 C45.57812607 70.14753021 45.59765839 71.27162292 45.61778259 72.42977905 C45.57265091 80.23453231 45.57265091 80.23453231 42.66162109 84.12573242 C39.60141526 86.28067649 36.49044279 88.18833473 33.1875 89.9375 C28.01785798 92.73161701 22.93934879 95.62123775 17.9296875 98.6953125 C16.8775708 99.333479 15.8254541 99.97164551 14.74145508 100.62915039 C12.65654066 101.89713574 10.58043375 103.1797426 8.5144043 104.47827148 C-0.86592799 110.12822235 -0.86592799 110.12822235 -6.62524414 109.65112305 C-12.06363782 108.15999568 -16.73690099 105.05925929 -21.5 102.125 C-22.64866989 101.43538958 -23.7984205 100.74757624 -24.94921875 100.06152344 C-27.23759934 98.6943007 -29.51845387 97.31660053 -31.796875 95.93261719 C-34.64757609 94.21263625 -37.51586802 92.53492856 -40.40625 90.8828125 C-41.19322266 90.43147949 -41.98019531 89.98014648 -42.79101562 89.51513672 C-44.22555222 88.69354425 -45.66166582 87.87469699 -47.09960938 87.05908203 C-50.21771758 85.24445842 -51.96331497 84.05502755 -54 81 C-54.27415466 78.66079712 -54.27415466 78.66079712 -54.30639648 75.87353516 C-54.33037758 74.30643295 -54.33037758 74.30643295 -54.35484314 72.70767212 C-54.36020584 71.57953094 -54.36556854 70.45138977 -54.37109375 69.2890625 C-54.38012222 68.12877533 -54.3891507 66.96848816 -54.39845276 65.77304077 C-54.41297007 63.31681912 -54.42184565 60.86055866 -54.42553711 58.40429688 C-54.43743203 54.64647243 -54.48660564 50.89029019 -54.53710938 47.1328125 C-54.54657345 44.74740386 -54.55380856 42.36198512 -54.55859375 39.9765625 C-54.57812607 38.85246979 -54.59765839 37.72837708 -54.61778259 36.57022095 C-54.57286773 28.80296353 -54.57286773 28.80296353 -51.84765625 24.9831543 C-48.91130179 22.93822912 -46.00101802 21.0439101 -42.87890625 19.29296875 C-42.29769516 18.96388016 -41.71648407 18.63479156 -41.11766052 18.29573059 C-39.27018069 17.25190009 -37.41663167 16.21945948 -35.5625 15.1875 C-33.75048854 14.16822835 -31.93978156 13.14666975 -30.12924194 12.12478638 C-28.920698 11.44524871 -27.71009534 10.76935952 -26.49746704 10.09713745 C-23.35834509 8.35370571 -20.26588803 6.56356613 -17.21435547 4.67041016 C-16.59584213 4.29451248 -15.9773288 3.91861481 -15.34007263 3.53132629 C-13.63021737 2.4885217 -11.93176735 1.42708219 -10.23413086 0.36450195 C-6.22179353 -1.32833064 -4.18457811 -1.08973388 0 0 Z " fill="#FC506C" transform="translate(205,247)"/>
<path d="M0 0 C2.69628906 1.1105957 2.69628906 1.1105957 5.265625 2.67578125 C6.22960205 3.25158936 7.1935791 3.82739746 8.18676758 4.4206543 C9.19763428 5.04496338 10.20850098 5.66927246 11.25 6.3125 C13.38375632 7.59694952 15.51787599 8.88079559 17.65234375 10.1640625 C19.2453833 11.13134277 19.2453833 11.13134277 20.87060547 12.11816406 C26.25561172 15.35639375 31.72665661 18.44531846 37.19824219 21.53442383 C37.92301758 21.94974365 38.64779297 22.36506348 39.39453125 22.79296875 C40.02206299 23.1489917 40.64959473 23.50501465 41.29614258 23.87182617 C43.2090661 25.13842878 44.55084673 26.20801518 46 28 C46.39440918 30.37716675 46.39440918 30.37716675 46.41992188 33.21826172 C46.44378967 34.81539505 46.44378967 34.81539505 46.46813965 36.4447937 C46.46834106 37.59480865 46.46854248 38.74482361 46.46875 39.9296875 C46.47636353 41.11217072 46.48397705 42.29465393 46.49182129 43.51296997 C46.50263497 46.01627489 46.50547028 48.51962498 46.50097656 51.02294922 C46.5000055 54.85330587 46.54159092 58.68165213 46.5859375 62.51171875 C46.59114522 64.94270415 46.59383268 67.37369652 46.59375 69.8046875 C46.61014526 70.95065399 46.62654053 72.09662048 46.64343262 73.27731323 C46.57469097 81.18952161 46.57469097 81.18952161 43.85424805 85.02612305 C40.86929122 87.09039265 37.90689045 89.00485511 34.73828125 90.77734375 C33.85223457 91.27809166 33.85223457 91.27809166 32.94828796 91.78895569 C31.07394416 92.84625844 29.1935811 93.89223972 27.3125 94.9375 C25.45636658 95.9783791 23.60156671 97.02159989 21.74703979 98.06533813 C20.53969394 98.74450179 19.33163192 99.422394 18.12283325 100.09896851 C13.67900321 102.59262466 9.31103184 105.19354752 4.97729492 107.87329102 C0.90559852 110.19343905 -2.38274923 110.43973817 -7 110 C-13.85990686 107.41999988 -20.02766118 103.20016772 -26.20703125 99.32421875 C-31.59148764 95.98259782 -37.12118288 92.88139279 -42.64038086 89.76904297 C-43.4216333 89.32318848 -44.20288574 88.87733398 -45.0078125 88.41796875 C-45.70535645 88.02375732 -46.40290039 87.6295459 -47.12158203 87.22338867 C-49.12196047 85.92056877 -50.50194374 84.86657517 -52 83 C-52.39440918 80.58486938 -52.39440918 80.58486938 -52.41992188 77.68994141 C-52.43583374 76.6051651 -52.45174561 75.52038879 -52.46813965 74.40274048 C-52.46834106 73.23085175 -52.46854248 72.05896301 -52.46875 70.8515625 C-52.47636353 69.64688324 -52.48397705 68.44220398 -52.49182129 67.20101929 C-52.50263543 64.65063552 -52.5054701 62.10020742 -52.50097656 59.54980469 C-52.50000548 55.64703394 -52.54159107 51.7462361 -52.5859375 47.84375 C-52.59114519 45.36719161 -52.59383268 42.89062637 -52.59375 40.4140625 C-52.61014526 39.24622223 -52.62654053 38.07838196 -52.64343262 36.87515259 C-52.57465878 28.81127156 -52.57465878 28.81127156 -49.83398438 24.94213867 C-46.9613329 22.97350131 -44.12868405 21.16539919 -41.0625 19.51171875 C-39.91910156 18.88716797 -38.77570312 18.26261719 -37.59765625 17.61914062 C-36.39873433 16.97470787 -35.19951467 16.33082875 -34 15.6875 C-31.66498442 14.42367607 -29.33164563 13.15674919 -27 11.88671875 C-25.84371094 11.25942871 -24.68742187 10.63213867 -23.49609375 9.98583984 C-21.09464873 8.65176899 -18.77399311 7.23682343 -16.47265625 5.73681641 C-15.89966797 5.36635696 -15.32667969 4.99589752 -14.73632812 4.61421204 C-13.16005993 3.58333528 -11.5971147 2.53216881 -10.03515625 1.47973633 C-6.35277516 -0.31554293 -4.05488262 -0.45506962 0 0 Z " fill="#FC506C" transform="translate(92,246)"/>
<path d="M0 0 C7.26 0 14.52 0 22 0 C22 36.3 22 72.6 22 110 C14.74 110 7.48 110 0 110 C0 108.02 0 106.04 0 104 C-0.66386719 104.33773437 -1.32773437 104.67546875 -2.01171875 105.0234375 C-2.89472656 105.46945312 -3.77773438 105.91546875 -4.6875 106.375 C-5.55761719 106.81585938 -6.42773438 107.25671875 -7.32421875 107.7109375 C-8.20722656 108.13632812 -9.09023438 108.56171875 -10 109 C-10.76570313 109.37769531 -11.53140625 109.75539063 -12.3203125 110.14453125 C-15.93990822 111.30005816 -19.42625055 111.34157326 -23.1875 111.3125 C-23.94417969 111.30686035 -24.70085937 111.3012207 -25.48046875 111.29541016 C-36.41979673 111.05892212 -44.98977457 107.73703336 -52.9765625 100.11328125 C-62.3661925 89.94451174 -64.63167989 78.65748274 -64.3125 65.19921875 C-63.70446288 53.8973287 -57.76562892 44.31528027 -49.6875 36.6875 C-40.43825229 28.85761408 -30.82391046 27.39878421 -19 28 C-11.9653998 28.95323056 -5.83875858 32.10749428 0 36 C0 24.12 0 12.24 0 0 Z " fill="#696463" transform="translate(521,184)"/>
<path d="M0 0 C7.26054071 5.19758265 11.24691904 11.07811424 13.7421875 19.640625 C14.2587704 24.03711272 14.23431015 28.37472589 14.16796875 32.796875 C14.16303658 34.63300354 14.16303658 34.63300354 14.15800476 36.50622559 C14.14763816 39.07451759 14.12778156 41.64278723 14.09887695 44.2109375 C14.05451034 48.15637992 14.03739022 52.1012131 14.02539062 56.046875 C14.01197757 58.54688386 13.99705766 61.04688519 13.98046875 63.546875 C13.97308182 64.73011353 13.96569489 65.91335205 13.95808411 67.13244629 C13.94524887 68.22118042 13.93241364 69.30991455 13.91918945 70.43164062 C13.90934525 71.39187134 13.89950104 72.35210205 13.88935852 73.34143066 C13.7421875 75.640625 13.7421875 75.640625 12.7421875 77.640625 C5.8121875 77.640625 -1.1178125 77.640625 -8.2578125 77.640625 C-8.2671582 76.06651855 -8.27650391 74.49241211 -8.28613281 72.87060547 C-8.32604921 67.02217464 -8.39181396 61.17426891 -8.46533203 55.32617188 C-8.49353182 52.79661817 -8.51475123 50.26697651 -8.52880859 47.73730469 C-8.55025079 44.09784954 -8.5969111 40.45945085 -8.6484375 36.8203125 C-8.64966614 35.69196991 -8.65089478 34.56362732 -8.65216064 33.40109253 C-8.76759667 27.19189582 -9.05918831 23.34530723 -13.2578125 18.640625 C-16.729128 15.74786208 -19.68098498 15.14997276 -24.203125 15.36328125 C-27.72555554 15.83874241 -30.20693183 16.82183075 -33.2578125 18.640625 C-37.86872543 24.74743288 -37.85884481 30.221126 -37.8671875 37.69921875 C-37.88372375 38.84350845 -37.90026001 39.98779816 -37.91729736 41.16676331 C-37.96569136 44.80393895 -37.98713026 48.4406967 -38.0078125 52.078125 C-38.03597921 54.55145322 -38.06590761 57.02476204 -38.09765625 59.49804688 C-38.17474892 65.5457636 -38.21535231 71.59217025 -38.2578125 77.640625 C-45.8478125 77.640625 -53.4378125 77.640625 -61.2578125 77.640625 C-61.2671582 76.03622559 -61.27650391 74.43182617 -61.28613281 72.77880859 C-61.32604527 66.81856663 -61.39180899 60.85884012 -61.46533203 54.89892578 C-61.49353409 52.32086821 -61.51475237 49.74272429 -61.52880859 47.16455078 C-61.55024759 43.45560525 -61.59690646 39.74769707 -61.6484375 36.0390625 C-61.64966614 34.88884613 -61.65089478 33.73862976 -61.65216064 32.55355835 C-61.76599473 26.31495065 -62.00320632 22.3540173 -66.2578125 17.640625 C-70.28324926 14.86666066 -74.54826426 15.23550257 -79.2578125 15.640625 C-83.29690217 16.71771558 -85.83249657 18.21173006 -88.2578125 21.640625 C-90.16177291 28.85304087 -90.57943823 36.13605012 -90.671875 43.55859375 C-90.69124115 44.54185135 -90.7106073 45.52510895 -90.7305603 46.53816223 C-90.78965827 49.63473221 -90.83645851 52.73134079 -90.8828125 55.828125 C-90.9210567 57.94597848 -90.96011201 60.06381747 -91 62.18164062 C-91.0968062 67.33455389 -91.17692657 72.48733973 -91.2578125 77.640625 C-98.5178125 77.640625 -105.7778125 77.640625 -113.2578125 77.640625 C-113.2578125 51.240625 -113.2578125 24.840625 -113.2578125 -2.359375 C-105.9978125 -2.359375 -98.7378125 -2.359375 -91.2578125 -2.359375 C-91.2578125 -0.709375 -91.2578125 0.940625 -91.2578125 2.640625 C-90.49855469 2.29128906 -89.73929688 1.94195312 -88.95703125 1.58203125 C-87.96316406 1.12699219 -86.96929688 0.67195312 -85.9453125 0.203125 C-84.46611328 -0.47556641 -84.46611328 -0.47556641 -82.95703125 -1.16796875 C-74.80920198 -4.76433333 -63.92438415 -4.82733311 -55.5703125 -1.609375 C-52.7644493 -0.2980922 -50.8272238 0.98696809 -48.3828125 2.953125 C-47.6815625 3.51 -46.9803125 4.066875 -46.2578125 4.640625 C-43.10263514 4.22564343 -40.7695382 2.8881104 -38.0703125 1.265625 C-26.14269394 -5.43637565 -12.24694705 -7.37359442 0 0 Z " fill="#696463" transform="translate(1135.2578125,216.359375)"/>
<path d="M0 0 C8.80183648 4.61365145 15.665826 11.53094585 19 21 C21.12684932 29.24268213 22 36.41828261 22 45 C1.21 45.33 -19.58 45.66 -41 46 C-36.99943555 53.00098779 -35.38773152 55.66379641 -28 58 C-18.91464199 59.32515719 -12.09260556 58.51817631 -4.46484375 53.3125 C-1.31788616 51.63678249 0.46992061 51.5358682 4 52 C7.2109375 53.53125 7.2109375 53.53125 10.375 55.5 C11.43460938 56.1496875 12.49421875 56.799375 13.5859375 57.46875 C14.38257813 57.9740625 15.17921875 58.479375 16 59 C15.05186973 64.18085467 12.02502202 66.80522179 8 70 C-4.87694178 77.98876609 -18.04280081 80.35503411 -33.10351562 77.61767578 C-43.43193503 74.8883337 -53.07942652 67.90660184 -59 59 C-65.04322872 47.48674853 -66.91808695 37.37353273 -63.03515625 24.6953125 C-57.9894751 11.55750121 -49.4218553 4.20777781 -37.07421875 -1.65234375 C-25.7429825 -6.61965824 -11.09159882 -4.93469204 0 0 Z " fill="#696463" transform="translate(983,217)"/>
<path d="M0 0 C7.59 0 15.18 0 23 0 C23.33 20.13 23.66 40.26 24 61 C30.19191994 53.68227643 35.69811827 47.04823562 41.15625 39.38671875 C44.68971233 34.81268171 48.23247397 31.14729675 54 30 C55.73285648 29.92047194 57.46847386 29.89225857 59.203125 29.90234375 C60.1828125 29.90556641 61.1625 29.90878906 62.171875 29.91210938 C63.18765625 29.92048828 64.2034375 29.92886719 65.25 29.9375 C66.796875 29.94426758 66.796875 29.94426758 68.375 29.95117188 C70.91672573 29.96293912 73.45833319 29.97937989 76 30 C72.13174593 35.2924906 68.08319702 40.33315863 63.75 45.25 C62.6169511 46.55708678 61.48414177 47.86438127 60.3515625 49.171875 C58.23155139 51.6083604 56.08216512 54.01119258 53.8984375 56.390625 C52.97373043 57.42688001 52.04923847 58.46332702 51.125 59.5 C50.30257812 60.3971875 49.48015625 61.294375 48.6328125 62.21875 C46.71822468 64.96010439 46.71822468 64.96010439 46.93359375 68.4609375 C48.16465796 72.54644729 50.08650417 75.07386677 52.9375 78.125 C53.9465907 79.25812408 54.95303887 80.39360615 55.95703125 81.53125 C56.4670166 82.10488281 56.97700195 82.67851562 57.50244141 83.26953125 C59.83279125 85.96231242 61.9807594 88.7832968 64.125 91.625 C68.08275853 96.8487668 72.18152745 101.92321279 76.3828125 106.953125 C78 109 78 109 78 110 C73.77119589 110.14541967 69.54303587 110.23411527 65.3125 110.3125 C64.11431641 110.35439453 62.91613281 110.39628906 61.68164062 110.43945312 C52.79495514 110.56322312 52.79495514 110.56322312 49.01171875 107.8828125 C48.34785156 106.93148437 47.68398438 105.98015625 47 105 C46.10330961 103.95138478 45.1965204 102.91134396 44.28125 101.87890625 C43.35183872 100.77539398 42.42477592 99.66989973 41.5 98.5625 C40.80970703 97.74168945 40.80970703 97.74168945 40.10546875 96.90429688 C37.05920872 93.27881838 34.02988954 89.6391608 31 86 C28.54775306 86.10613836 28.54775306 86.10613836 26 87 C23.53809013 91.43143777 23.35188589 96.35992275 22.875 101.3125 C22.78863281 102.14845703 22.70226562 102.98441406 22.61328125 103.84570312 C22.40234458 105.8964763 22.20028354 107.94815903 22 110 C18.70849875 110.08685287 15.4172904 110.14033895 12.125 110.1875 C11.18785156 110.21263672 10.25070312 110.23777344 9.28515625 110.26367188 C8.38925781 110.27333984 7.49335938 110.28300781 6.5703125 110.29296875 C5.74289551 110.3086792 4.91547852 110.32438965 4.06298828 110.34057617 C3.38220215 110.22818604 2.70141602 110.1157959 2 110 C-0.09637746 106.8554338 -0.24889851 106.15521392 -0.24050903 102.57710266 C-0.24325836 101.67266418 -0.24600769 100.76822571 -0.24884033 99.83638 C-0.24164978 98.84663681 -0.23445923 97.85689362 -0.22705078 96.8371582 C-0.22734283 95.79308807 -0.22763489 94.74901794 -0.22793579 93.67330933 C-0.22654033 90.21571598 -0.21096877 86.75833704 -0.1953125 83.30078125 C-0.19158314 80.9061037 -0.18873581 78.51142462 -0.18673706 76.116745 C-0.17909453 69.8087443 -0.15944064 63.50083546 -0.1373291 57.19287109 C-0.11688407 50.75815066 -0.10773821 44.32341541 -0.09765625 37.88867188 C-0.07619538 25.2590677 -0.04100812 12.62955585 0 0 Z " fill="#6B6665" transform="translate(309,184)"/>
<path d="M0 0 C3.93736123 -0.08696177 7.87447628 -0.14037835 11.8125 -0.1875 C13.49182617 -0.22520508 13.49182617 -0.22520508 15.20507812 -0.26367188 C16.27822266 -0.27333984 17.35136719 -0.28300781 18.45703125 -0.29296875 C19.9416687 -0.31653442 19.9416687 -0.31653442 21.45629883 -0.34057617 C24.51247301 0.06861502 25.05961187 0.68227136 27 3 C28.00614929 4.97302246 28.00614929 4.97302246 28.90112305 7.24023438 C29.24124924 8.09121704 29.58137543 8.94219971 29.93180847 9.81896973 C30.28817886 10.73464722 30.64454926 11.65032471 31.01171875 12.59375 C31.38480667 13.53682007 31.75789459 14.47989014 32.14228821 15.45153809 C32.92845549 17.44391327 33.71076885 19.43781285 34.48950195 21.43310547 C35.68434527 24.49192384 36.89294216 27.54503407 38.10351562 30.59765625 C38.86540623 32.5335305 39.62650116 34.46971814 40.38671875 36.40625 C40.74916183 37.32192749 41.11160492 38.23760498 41.48503113 39.18103027 C41.81570084 40.03201294 42.14637054 40.88299561 42.48706055 41.75976562 C42.78001511 42.50794556 43.07296967 43.25612549 43.37480164 44.02697754 C44 46 44 46 44 49 C44.66 49 45.32 49 46 49 C46.09748535 48.20037842 46.1949707 47.40075684 46.29541016 46.5769043 C47.17620643 42.10547458 48.67365404 38.02786983 50.2734375 33.76953125 C50.76005356 32.46117561 50.76005356 32.46117561 51.25650024 31.12638855 C51.94132337 29.29065442 52.62899218 27.45597964 53.31933594 25.62231445 C54.37405249 22.81502194 55.41401814 20.00255503 56.453125 17.18945312 C57.12150746 15.40331315 57.79074896 13.61749434 58.4609375 11.83203125 C58.77042328 10.99138626 59.07990906 10.15074127 59.39877319 9.28462219 C59.69563019 8.50338486 59.99248718 7.72214752 60.29833984 6.91723633 C60.55513519 6.23139969 60.81193054 5.54556305 61.07650757 4.83894348 C62.12282946 2.75541063 63.20159776 1.47851701 65 0 C67.54370117 -0.34057617 67.54370117 -0.34057617 70.54296875 -0.29296875 C72.15268555 -0.2784668 72.15268555 -0.2784668 73.79492188 -0.26367188 C74.91447266 -0.23853516 76.03402344 -0.21339844 77.1875 -0.1875 C78.31865234 -0.17396484 79.44980469 -0.16042969 80.61523438 -0.14648438 C83.41063317 -0.11109958 86.20507892 -0.06172948 89 0 C87.06412494 6.03789224 84.89712194 11.9237018 82.47265625 17.78125 C82.13137695 18.61288666 81.79009766 19.44452332 81.43847656 20.30136108 C80.31588204 23.03537219 79.18922215 25.76768767 78.0625 28.5 C76.86337723 31.41638077 75.66522719 34.33315993 74.46714783 37.24996948 C73.62737033 39.29431935 72.78724585 41.33852672 71.9467926 43.38259888 C68.77081999 51.11031346 65.6157214 58.84637235 62.46875 66.5859375 C61.55722387 68.8261774 60.64568429 71.06641183 59.73413086 73.30664062 C58.40409622 76.57561087 57.07473724 79.84484697 55.74758911 83.11499023 C54.51226229 86.15826919 53.27400133 89.20033938 52.03515625 92.2421875 C51.670271 93.14343353 51.30538574 94.04467957 50.92944336 94.97323608 C46.03896141 106.96103859 46.03896141 106.96103859 43 110 C40.66162109 110.22705078 40.66162109 110.22705078 37.7734375 110.1953125 C36.7421875 110.18886719 35.7109375 110.18242187 34.6484375 110.17578125 C33.56820312 110.15902344 32.48796875 110.14226562 31.375 110.125 C30.28703125 110.11597656 29.1990625 110.10695313 28.078125 110.09765625 C25.38519848 110.07403409 22.69270745 110.04109556 20 110 C21.5839155 105.01066616 23.49572526 100.20538598 25.5 95.375 C25.80808594 94.62476563 26.11617187 93.87453125 26.43359375 93.1015625 C28.77373002 87.43702664 28.77373002 87.43702664 30.08251953 84.90917969 C31.25342821 82.47264274 31.33568136 80.57225903 31.375 77.875 C31.41753906 76.57175781 31.41753906 76.57175781 31.4609375 75.2421875 C30.33607425 67.33001378 26.05353085 59.75731818 22.734375 52.5390625 C21.91784134 50.74875602 21.10143948 48.95838942 20.28515625 47.16796875 C19.0257373 44.41241258 17.76491936 41.65751686 16.50146484 38.90380859 C10.62041944 26.07391079 5.12035412 13.15266535 0 0 Z " fill="#686362" transform="translate(680,214)"/>
<path d="M0 0 C0.845625 0.59296875 1.69125 1.1859375 2.5625 1.796875 C0.57172618 7.26421969 -2.22374401 11.75475877 -6.4375 15.796875 C-10.72223645 16.74903866 -13.53157715 15.79328584 -17.5 14.296875 C-23.59105334 12.07716472 -30.03945461 12.16364943 -36.4375 12.796875 C-37.4275 13.456875 -38.4175 14.116875 -39.4375 14.796875 C-38.84747872 16.79042676 -38.84747872 16.79042676 -37.4375 18.796875 C-34.76506042 20.05799427 -34.76506042 20.05799427 -31.5625 20.859375 C-30.39460937 21.19066406 -29.22671875 21.52195313 -28.0234375 21.86328125 C-24.7528909 22.71476343 -21.47525824 23.51508159 -18.1875 24.296875 C-10.50748949 26.18390532 -3.44966584 28.35266178 1.5625 34.796875 C5.24659711 40.9047202 6.67559495 46.70646015 5.5625 53.796875 C3.42466016 60.65759572 0.25007751 66.55273485 -6.25 69.984375 C-18.18126946 75.76550556 -34.01316662 75.81428175 -46.625 72.171875 C-61.87875561 66.50447173 -61.87875561 66.50447173 -64.4921875 61.96484375 C-64.40424224 58.47844221 -62.49700472 56.73991203 -60.3125 54.109375 C-59.52617188 53.13613281 -58.73984375 52.16289062 -57.9296875 51.16015625 C-55.17275261 48.54582144 -54.20488204 47.77493973 -50.4375 47.796875 C-47.0484745 48.90750401 -43.8524832 50.20461909 -40.58398438 51.61523438 C-33.19882836 54.632901 -26.95979376 54.40665039 -19.4375 51.796875 C-18.14116379 50.73042385 -18.14116379 50.73042385 -18.375 48.234375 C-18.395625 47.43 -18.41625 46.625625 -18.4375 45.796875 C-22.26499965 44.12682366 -25.9716662 43.17661832 -30.0625 42.359375 C-53.32041911 37.45017995 -53.32041911 37.45017995 -61 27.796875 C-64.60728845 21.84182619 -64.49264729 15.52443068 -63.4375 8.796875 C-61.03905223 2.32005402 -56.24330025 -1.99633969 -50.3828125 -5.39453125 C-34.6843351 -12.59175651 -14.05490499 -9.30973263 0 0 Z " fill="#6A6564" transform="translate(668.4375,221.203125)"/>
<path d="M0 0 C1.01271973 0.00427002 2.02543945 0.00854004 3.06884766 0.01293945 C11.25294395 0.19843515 17.48019818 1.58467733 24.75 5.5 C25.66652344 5.97695312 26.58304688 6.45390625 27.52734375 6.9453125 C29.63597593 8.08247931 31.7027038 9.2568098 33.75 10.5 C32.07076975 14.30133442 29.63537166 17.47082702 27.125 20.75 C26.70476563 21.30429688 26.28453125 21.85859375 25.8515625 22.4296875 C24.82061281 23.78866663 23.78570089 25.14463835 22.75 26.5 C22.01394531 26.22285156 21.27789063 25.94570312 20.51953125 25.66015625 C19.54371094 25.29792969 18.56789063 24.93570313 17.5625 24.5625 C16.59957031 24.20285156 15.63664063 23.84320313 14.64453125 23.47265625 C9.7455599 21.82644321 5.29194502 21.32126821 0.125 21.25 C-1.00164063 21.22421875 -2.12828125 21.1984375 -3.2890625 21.171875 C-6.26438822 21.23481611 -6.26438822 21.23481611 -8.1484375 23.015625 C-8.51195312 23.50546875 -8.87546875 23.9953125 -9.25 24.5 C-8.92 25.49 -8.59 26.48 -8.25 27.5 C-5.6066413 28.49920353 -5.6066413 28.49920353 -2.34375 29.1484375 C-1.12429688 29.43203125 0.09515625 29.715625 1.3515625 30.0078125 C3.91908845 30.57894553 6.48679253 31.14927843 9.0546875 31.71875 C20.29376794 34.3341335 28.4430277 37.31371295 34.8515625 47.19921875 C37.16458411 53.12256539 36.87979497 62.20759321 34.83984375 68.15234375 C30.18530366 75.94982088 23.38042477 79.59895036 14.93969727 82.01904297 C2.37640396 84.77851312 -11.95440971 83.562959 -23.25 77.5 C-24.31347656 76.94957031 -25.37695312 76.39914062 -26.47265625 75.83203125 C-29.09654836 74.43549702 -31.68262996 72.99720377 -34.25 71.5 C-32.62815499 67.91486894 -30.45743761 64.91007677 -28.125 61.75 C-27.40054688 60.76515625 -26.67609375 59.7803125 -25.9296875 58.765625 C-25.09824219 57.64414062 -25.09824219 57.64414062 -24.25 56.5 C-19.04773063 57.54045387 -14.18456781 58.83443695 -9.1875 60.625 C-0.86106741 63.44269012 4.68315383 62.95721979 12.75 59.5 C12.42 57.85 12.09 56.2 11.75 54.5 C4.81956627 52.45308029 -2.05296936 50.50063018 -9.125 49 C-17.92375296 46.99251753 -24.63278266 43.80238254 -30.25 36.5 C-33.44438243 30.3035391 -32.93964425 23.2599504 -32.25 16.5 C-30.18327521 10.40131658 -25.77744733 6.53632565 -20.25 3.5 C-13.56470744 0.56214044 -7.24367497 -0.04631813 0 0 Z " fill="#696463" transform="translate(810.25,212.5)"/>
<path d="M0 0 C7.26 0 14.52 0 22 0 C22 6.93 22 13.86 22 21 C26.95 21 31.9 21 37 21 C37 27.6 37 34.2 37 41 C32.38 41.33 27.76 41.66 23 42 C22.92568868 47.17778402 22.87132192 52.35525569 22.83520508 57.53344727 C22.82014447 59.29391896 22.79969174 61.0543533 22.77368164 62.81469727 C22.73717771 65.34921503 22.72024646 67.88323552 22.70703125 70.41796875 C22.69154739 71.20149216 22.67606354 71.98501556 22.66011047 72.7922821 C22.65871176 77.36255779 23.07404448 80.40974988 26 84 C28.45367363 84.77793499 28.45367363 84.77793499 31.125 84.75 C35.94561934 84.94561934 35.94561934 84.94561934 37 86 C37.08651611 87.41570123 37.10704904 88.835595 37.09765625 90.25390625 C37.09443359 91.10791016 37.09121094 91.96191406 37.08789062 92.84179688 C37.07532227 94.18854492 37.07532227 94.18854492 37.0625 95.5625 C37.05798828 96.46419922 37.05347656 97.36589844 37.04882812 98.29492188 C37.03700225 100.53001314 37.0205222 102.76497437 37 105 C12.71530035 105.81401228 12.71530035 105.81401228 4 99 C1.14678374 94.86775576 -0.12581095 92.07924673 -0.11352539 87.09130859 C-0.11344986 86.07040131 -0.11337433 85.04949402 -0.11329651 83.99765015 C-0.10813522 82.89240997 -0.10297394 81.7871698 -0.09765625 80.6484375 C-0.0962413 79.5192691 -0.09482635 78.39010071 -0.09336853 77.22671509 C-0.08775744 73.60945012 -0.07520303 69.99224636 -0.0625 66.375 C-0.05748643 63.92708423 -0.05292328 61.47916748 -0.04882812 59.03125 C-0.03778439 53.02080964 -0.02051229 47.01041521 0 41 C-3.3 41 -6.6 41 -10 41 C-10 34.4 -10 27.8 -10 21 C-6.7 21 -3.4 21 0 21 C0 14.07 0 7.14 0 0 Z " fill="#6A6564" transform="translate(869,191)"/>
<path d="M0 0 C2.66299518 1.4837048 5.2525304 3.04974392 7.83740234 4.66552734 C8.73007813 5.19984375 9.62275391 5.73416016 10.54248047 6.28466797 C18.40224493 11.09278573 18.40224493 11.09278573 20.52490234 14.85302734 C21.16342094 19.1042608 21.166825 23.3467451 21.19067383 27.64257812 C21.2122879 29.71704355 21.29247523 31.78409578 21.37451172 33.85693359 C21.4647068 43.55053136 21.4647068 43.55053136 19.01611328 46.9440918 C16.93536324 48.54862841 14.88008215 49.69235364 12.52490234 50.85302734 C11.01895584 51.78383932 9.51636403 52.72009959 8.01708984 53.66162109 C6.48155817 54.54409558 4.94246318 55.42039817 3.39990234 56.29052734 C2.62775391 56.74878906 1.85560547 57.20705078 1.06005859 57.67919922 C-2.33456241 59.59626372 -4.62845115 60.84875674 -8.57275391 60.86865234 C-12.16571171 59.6113589 -15.46901056 58.00880914 -18.78759766 56.16552734 C-19.44260254 55.8082959 -20.09760742 55.45106445 -20.77246094 55.08300781 C-34.70719318 47.3888363 -34.70719318 47.3888363 -36.47509766 43.85302734 C-36.75552051 39.76772778 -36.7886891 35.680792 -36.82519531 31.58666992 C-36.84173363 30.22777149 -36.86899687 28.8689593 -36.90722656 27.51049805 C-36.96219372 25.54578049 -36.98076654 23.5801521 -36.99853516 21.61474609 C-37.01835449 20.43871826 -37.03817383 19.26269043 -37.05859375 18.05102539 C-36.16054318 13.12903192 -33.22675744 11.11214355 -29.30273438 8.29150391 C-28.23949951 7.64906738 -28.23949951 7.64906738 -27.15478516 6.99365234 C-26.37232422 6.51798828 -25.58986328 6.04232422 -24.78369141 5.55224609 C-23.5790625 4.83488281 -23.5790625 4.83488281 -22.35009766 4.10302734 C-21.53927734 3.60931641 -20.72845703 3.11560547 -19.89306641 2.60693359 C-13.00148523 -1.5507972 -7.73803395 -3.58584371 0 0 Z " fill="#FEFBFC" transform="translate(208.47509765625,272.14697265625)"/>
<path d="M0 0 C0.8775293 0.52029785 1.75505859 1.0405957 2.65917969 1.57666016 C3.62339844 2.14642578 4.58761719 2.71619141 5.58105469 3.30322266 C6.57105469 3.90134766 7.56105469 4.49947266 8.58105469 5.11572266 C10.08925781 6.00130859 10.08925781 6.00130859 11.62792969 6.90478516 C19.06654576 11.34395926 19.06654576 11.34395926 21.33105469 14.74072266 C21.73926638 18.8482242 21.70266071 22.95623452 21.70166016 27.08251953 C21.7060256 29.10226266 21.74233045 31.11980475 21.78027344 33.13916016 C21.78607422 35.05728516 21.78607422 35.05728516 21.79199219 37.01416016 C21.80020996 38.18382324 21.80842773 39.35348633 21.81689453 40.55859375 C21.22153176 44.45807033 20.10798743 45.97470066 17.33105469 48.74072266 C13.69932166 51.33639711 9.78679604 53.43647177 5.89355469 55.61572266 C4.33797852 56.52451172 4.33797852 56.52451172 2.75097656 57.45166016 C1.74744141 58.01884766 0.74390625 58.58603516 -0.29003906 59.17041016 C-1.65793579 59.94747314 -1.65793579 59.94747314 -3.0534668 60.74023438 C-6.20765666 61.9467937 -7.49323179 61.81652138 -10.66894531 60.74072266 C-12.60574522 59.77970328 -14.5053316 58.74176787 -16.37207031 57.65087891 C-17.43425781 57.03148437 -18.49644531 56.41208984 -19.59082031 55.77392578 C-20.68910156 55.12359375 -21.78738281 54.47326172 -22.91894531 53.80322266 C-24.03269531 53.15675781 -25.14644531 52.51029297 -26.29394531 51.84423828 C-34.53746468 47.00368392 -34.53746468 47.00368392 -35.66894531 44.74072266 C-35.95019016 40.35259108 -35.98254181 35.9608646 -36.01904297 31.56494141 C-36.03560582 30.10221449 -36.06290114 28.63956862 -36.10107422 27.17724609 C-36.15590246 25.06516693 -36.17772069 22.95498045 -36.19238281 20.84228516 C-36.21220215 19.57723145 -36.23202148 18.31217773 -36.25244141 17.00878906 C-35.66894531 13.74072266 -35.66894531 13.74072266 -33.41992188 11.46948242 C-32.51209961 10.8989917 -31.60427734 10.32850098 -30.66894531 9.74072266 C-29.92177246 9.2628833 -29.17459961 8.78504395 -28.40478516 8.29272461 C-27.65406738 7.85919678 -26.90334961 7.42566895 -26.12988281 6.97900391 C-25.30230469 6.50011719 -24.47472656 6.02123047 -23.62207031 5.52783203 C-22.77128906 5.04121094 -21.92050781 4.55458984 -21.04394531 4.05322266 C-20.18542969 3.555 -19.32691406 3.05677734 -18.44238281 2.54345703 C-11.75913025 -1.30463448 -7.51830542 -3.54733071 0 0 Z " fill="#FEFBFC" transform="translate(151.6689453125,175.25927734375)"/>
<path d="M0 0 C0.87116455 0.51916992 1.7423291 1.03833984 2.63989258 1.57324219 C3.59959961 2.14171875 4.55930664 2.71019531 5.5480957 3.29589844 C6.53358398 3.89789063 7.51907227 4.49988281 8.53442383 5.12011719 C9.53151367 5.70664062 10.52860352 6.29316406 11.5559082 6.89746094 C20.27419486 12.1296087 20.27419486 12.1296087 22.34692383 15.87011719 C22.91802179 20.00028437 22.86213366 24.12056513 22.84790039 28.28735352 C22.84692808 30.29882045 22.8885626 32.30646654 22.93286133 34.31738281 C22.93672852 36.22874023 22.93672852 36.22874023 22.94067383 38.17871094 C22.94776367 39.34200928 22.95485352 40.50530762 22.9621582 41.70385742 C21.99597485 46.67625104 18.95930689 48.73058536 14.96264648 51.55517578 C12.31006426 53.13848368 9.64836969 54.70244353 6.97192383 56.24511719 C6.0515332 56.80328125 5.13114258 57.36144531 4.18286133 57.93652344 C0.31721831 60.17307404 -2.61952519 61.79537452 -7.11010742 62.12011719 C-12.46257428 60.23170551 -17.13095279 57.44096781 -21.96557617 54.49511719 C-22.9665332 53.90472656 -23.96749023 53.31433594 -24.9987793 52.70605469 C-32.37935453 48.28069965 -32.37935453 48.28069965 -34.65307617 44.87011719 C-35.10694406 40.62370168 -35.10956444 36.36860139 -35.13354492 32.10107422 C-35.15295534 30.00814552 -35.21499566 27.9191544 -35.27807617 25.82714844 C-35.44435121 15.88361719 -35.44435121 15.88361719 -32.24682617 11.78808594 C-30.59643555 10.81738281 -30.59643555 10.81738281 -28.65307617 9.87011719 C-27.90348633 9.41314453 -27.15389648 8.95617187 -26.3815918 8.48535156 C-23.84059085 6.93752356 -21.25912114 5.49285813 -18.65307617 4.05761719 C-17.77651367 3.55552734 -16.89995117 3.0534375 -15.99682617 2.53613281 C-15.14088867 2.06240234 -14.28495117 1.58867187 -13.40307617 1.10058594 C-12.63479492 0.67156982 -11.86651367 0.24255371 -11.07495117 -0.19946289 C-7.05339902 -1.7444362 -3.96098596 -1.68689087 0 0 Z " fill="#FEFAFC" transform="translate(94.653076171875,271.1298828125)"/>
<path d="M0 0 C0 6.93 0 13.86 0 21 C-2.145 21.53625 -4.29 22.0725 -6.5 22.625 C-14.04316797 24.68770088 -19.73672139 27.34955063 -23.9375 34.125 C-25.33482425 37.90599503 -26.11822964 41.18662907 -26.20532227 45.21777344 C-26.22526749 46.03832214 -26.24521271 46.85887085 -26.26576233 47.70428467 C-26.28247482 48.58046448 -26.29918732 49.45664429 -26.31640625 50.359375 C-26.33718735 51.26375305 -26.35796844 52.1681311 -26.37937927 53.09991455 C-26.4446594 55.98320055 -26.50365952 58.8665761 -26.5625 61.75 C-26.60570571 63.70704044 -26.64932065 65.66407188 -26.69335938 67.62109375 C-26.80108735 72.41397213 -26.90032091 77.20692042 -27 82 C-34.26 82 -41.52 82 -49 82 C-49 55.6 -49 29.2 -49 2 C-41.74 2 -34.48 2 -27 2 C-27 4.64 -27 7.28 -27 10 C-26.48953125 9.61328125 -25.9790625 9.2265625 -25.453125 8.828125 C-17.54809039 3.1656534 -9.78230027 0 0 0 Z " fill="#6A6564" transform="translate(448,212)"/>
<path d="M0 0 C5.52377073 3.60154076 8.32595482 8.02336469 10.04296875 14.33203125 C10.75682819 21.02238837 10.95897332 27.68224036 7.453125 33.61328125 C4.12564884 37.66893086 0.00748438 40.67719271 -4.95703125 42.33203125 C-12.54345818 42.96509834 -19.80484078 43.33506542 -25.95703125 38.33203125 C-31.21365355 32.91077201 -33.5704991 27.50657846 -34.26953125 19.95703125 C-33.63160474 12.55708379 -31.48142088 6.4961346 -25.95703125 1.33203125 C-17.64871253 -3.94909807 -8.79734576 -4.40645814 0 0 Z " fill="#FBFBFB" transform="translate(511.95703125,233.66796875)"/>
<path d="M0 0 C4.29472353 4.03285014 6.79231697 7.48079243 9 13 C-4.53 13 -18.06 13 -32 13 C-28.82631632 5.59473809 -26.11768462 1.65009468 -19 -2 C-12.5329362 -4.4530242 -5.81754767 -3.38475501 0 0 Z " fill="#F6F6F6" transform="translate(973,234)"/>
</svg>
